<svg xmlns="http://www.w3.org/2000/svg" width="1200" height="630" viewBox="0 0 1200 630">
  <!-- Background -->
  <rect width="1200" height="630" fill="#75507b"/>
  
  <!-- Gradient Overlay -->
  <defs>
    <linearGradient id="graddataConverterTool" x1="0%" y1="0%" x2="100%" y2="100%">
      <stop offset="0%" style="stop-color:#75507b;stop-opacity:1" />
      <stop offset="100%" style="stop-color:#000000;stop-opacity:0.2" />
    </linearGradient>
  </defs>
  <rect width="1200" height="630" fill="url(#graddataConverterTool)"/>
  
  <!-- Icon (centered, large) -->
  <g transform="translate(450, 150)">
    <svg width="300" height="300" viewBox="0 0 16 16" fill="#ffffff" opacity="0.3">
      <path fill-rule="evenodd" d="M1 11.5a.5.5 0 0 0 .5.5h11.793l-3.147 3.146a.5.5 0 0 0 .708.708l4-4a.5.5 0 0 0 0-.708l-4-4a.5.5 0 0 0-.708.708L13.293 11H1.5a.5.5 0 0 0-.5.5zm14-7a.5.5 0 0 1-.5.5H2.707l3.147 3.146a.5.5 0 1 1-.708.708l-4-4a.5.5 0 0 1 0-.708l4-4a.5.5 0 1 1 .708.708L2.707 4H14.5a.5.5 0 0 1 .5.5z"/>
    </svg>
  </g>
  
  <!-- Text Content -->
  <text x="600" y="380" font-family="system-ui, -apple-system, sans-serif" font-size="68" font-weight="700" fill="#ffffff" text-anchor="middle">
    Data Converter
  </text>
  <text x="600" y="450" font-family="system-ui, -apple-system, sans-serif" font-size="42" font-weight="400" fill="#ffffff" text-anchor="middle" opacity="0.9">
    Convert between JSON, XML, YAML, CSV formats and Unix timestamps. Bidirectional conversion with...
  </text>
  
  <!-- Mini-Tools Branding (bottom) -->
  <text x="600" y="570" font-family="system-ui, -apple-system, sans-serif" font-size="24" font-weight="500" fill="#ffffff" text-anchor="middle" opacity="0.7">
    Mini-Tools Collection
  </text>
</svg>