<svg xmlns="http://www.w3.org/2000/svg" version="1.1" xmlns:xlink="http://www.w3.org/1999/xlink" width="1000" height="1000"><style>
    #light-icon {
      display: inline;
    }
    #dark-icon {
      display: none;
    }

    @media (prefers-color-scheme: dark) {
      #light-icon {
        display: none;
      }
      #dark-icon {
        display: inline;
      }
    }
  </style><g id="light-icon"><svg xmlns="http://www.w3.org/2000/svg" version="1.1" xmlns:xlink="http://www.w3.org/1999/xlink" width="1000" height="1000"><g><g transform="matrix(4.032583272844584,0,0,4.032583272844584,5.684341886080802e-14,5.684341886080802e-14)"><svg xmlns="http://www.w3.org/2000/svg" version="1.1" xmlns:xlink="http://www.w3.org/1999/xlink" width="247.98" height="247.98"><svg version="1.1" id="svg1" width="247.98" height="247.98" viewBox="0 0 247.98 247.98" sodipodi:docname="favicon.svg" inkscape:version="1.4 (e7c3feb100, 2024-10-09)" xmlns:inkscape="http://www.inkscape.org/namespaces/inkscape" xmlns:sodipodi="http://sodipodi.sourceforge.net/DTD/sodipodi-0.dtd" xmlns="http://www.w3.org/2000/svg" xmlns:svg="http://www.w3.org/2000/svg">
  <defs id="defs1"></defs>
  <sodipodi:namedview id="namedview1" pagecolor="#ffffff" bordercolor="#000000" borderopacity="0.25" inkscape:showpageshadow="2" inkscape:pageopacity="0.0" inkscape:pagecheckerboard="0" inkscape:deskcolor="#d1d1d1" inkscape:zoom="1.1" inkscape:cx="21.818182" inkscape:cy="38.181818" inkscape:window-width="1920" inkscape:window-height="1011" inkscape:window-x="0" inkscape:window-y="0" inkscape:window-maximized="1" inkscape:current-layer="g1"></sodipodi:namedview>
  <g inkscape:groupmode="layer" inkscape:label="Image" id="g1" transform="translate(-349.77232,-220.11942)">
    <path style="fill:#000000" d="m 386.70473,457.38138 c -5.25756,-1.18075 -8.49318,-2.58108 -8.42538,-3.64639 0.041,-0.64485 3.97854,-4.66442 8.75,-8.93237 4.77146,-4.26796 11.25042,-10.11796 14.39769,-13 l 5.7223,-5.24008 -2.48274,-10.96043 c -1.3655,-6.02824 -2.81554,-11.26513 -3.2223,-11.63753 -0.40676,-0.3724 -5.30085,-2.15661 -10.87575,-3.96491 l -10.13619,-3.28782 -3.93455,3.42535 c -2.16401,1.88393 -8.60103,7.59204 -14.3045,12.68466 -7.31663,6.53303 -10.68184,8.94609 -11.42926,8.19548 -0.62304,-0.62571 -1.03028,-5.46873 -0.98881,-11.75932 0.0812,-12.32141 1.84314,-18.09449 8.61917,-28.24168 10.49184,-15.71164 31.28765,-23.26785 50.91059,-18.49849 l 7.13794,1.73488 4.63089,-4.36306 c 2.547,-2.39968 9.016,-8.57457 14.37557,-13.72196 11.05152,-10.61402 9.32463,-10.5002 18.95089,-1.24911 l 5.69556,5.47359 -2.44556,4.17303 c -4.4282,7.55615 -2.67853,18.05905 3.77381,22.65353 l 2.9728,2.11682 -9.99805,10.11348 -9.99805,10.11349 -0.42174,11.22413 c -0.40403,10.75303 -0.59444,11.57147 -4.53676,19.5 -6.70407,13.48278 -18.53336,23.09072 -32.27828,26.21694 -6.46034,1.46937 -16.00219,1.87875 -20.45929,0.87777 z m 175.5,-3.66547 c -5.69489,-2.04829 -5.65061,-2.01052 -36.92,-31.49491 -26.83951,-25.30739 -30.15904,-28.77972 -31.06664,-32.49675 -1.63523,-6.69692 -4.21089,-10.85475 -8.95996,-14.46382 -4.14252,-3.14812 -4.80435,-3.33451 -9.67793,-2.7256 -3.78909,0.47342 -6.04486,0.23292 -8.18221,-0.87235 -3.36792,-1.74162 -4.19326,-3.35074 -4.19326,-8.17538 0,-3.63126 3.83031,-8.43975 21.65031,-27.17932 7.38284,-7.76383 8.09717,-8.25449 12.0108,-8.25 5.60892,0.006 9.33889,4.17275 9.33889,10.43145 0,3.13816 0.7781,5.34737 2.92935,8.31708 4.01443,5.54176 6.78549,7.25623 11.72806,7.25623 2.31681,0 5.38487,0.44577 6.81789,0.99061 1.43303,0.54484 8.77483,6.74168 16.3151,13.77076 7.54028,7.02908 21.31688,19.73135 30.61467,28.22726 20.07876,18.3471 22.17946,21.59768 21.35992,33.05189 -0.81353,11.37013 -7.39251,19.92055 -17.95144,23.3307 -5.95968,1.92476 -10.99668,2.01463 -15.81355,0.28215 z m 13.03273,-16.1703 c 10.47181,-5.41518 5.95973,-21.48307 -6.03273,-21.48307 -11.5936,0 -16.27364,14.79194 -6.78321,21.4393 2.83289,1.98422 9.02264,2.00537 12.81594,0.0438 z M 452.9944,332.30738 c -7.35189,-7.00966 -21.0239,-20.00069 -30.38225,-28.86895 l -17.01517,-16.1241 -8.94613,-2.82376 c -4.92036,-1.55306 -9.46508,-3.29722 -10.09936,-3.87589 -0.63428,-0.57868 -5.07789,-7.702 -9.87469,-15.82962 l -8.72146,-14.77747 4.8747,-5.36466 c 2.68108,-2.95056 5.32469,-5.39375 5.87469,-5.42932 0.55,-0.0356 7.73822,3.8692 15.97383,8.67728 l 14.97382,8.74195 3.52618,9.21776 3.52617,9.21776 20.5,19.09709 c 24.45919,22.78533 40.10467,38.13331 39.75469,38.99875 -0.14008,0.34641 -2.58192,3.16293 -5.42632,6.25893 l -5.17163,5.62909 z m 60.82903,1.93843 c -0.7777,-5.86255 -5.18745,-11.55581 -10.24296,-13.22428 -5.57666,-1.84046 -13.61131,-0.77942 -17.69724,2.33706 l -3.46577,2.64347 -4.85079,-4.51727 -4.85079,-4.51726 14.48615,-13.79965 14.48616,-13.79965 0.13583,-10.90284 c 0.10391,-8.33997 0.63578,-12.29426 2.26265,-16.82212 6.0546,-16.85095 18.93874,-27.68306 36.43814,-30.63472 10.02414,-1.69079 25.69795,-0.21257 25.6663,2.42062 -0.008,0.62335 -6.28342,7.10754 -13.94649,14.40931 l -13.93287,13.27594 1.29518,3.72406 c 0.71235,2.04823 2.07915,6.9556 3.03735,10.90526 l 1.74217,7.1812 10.49879,4.0688 c 5.77434,2.23784 10.80111,4.0688 11.17062,4.0688 0.3695,0 6.87564,-5.85 14.45808,-13 7.58245,-7.15 14.18446,-13 14.67114,-13 2.48022,0 3.43683,12.95163 1.63842,22.18297 -3.58984,18.42693 -15.01058,31.72511 -31.70973,36.92247 -7.25953,2.25942 -20.07837,2.51577 -27.64563,0.55284 l -5.17244,-1.34171 -8.92176,7.80324 -8.92176,7.80324 z" id="path1"></path>
  </g>
</svg></svg></g></g></svg></g><g id="dark-icon"><svg xmlns="http://www.w3.org/2000/svg" version="1.1" xmlns:xlink="http://www.w3.org/1999/xlink" width="1000" height="1000"><g><g transform="matrix(4.032583272844584,0,0,4.032583272844584,5.684341886080802e-14,5.684341886080802e-14)"><svg xmlns="http://www.w3.org/2000/svg" version="1.1" xmlns:xlink="http://www.w3.org/1999/xlink" width="247.98" height="247.98"><svg version="1.1" id="svg1" width="247.98" height="247.98" viewBox="0 0 247.98 247.98" sodipodi:docname="favicon_dark.svg" inkscape:version="1.4 (e7c3feb100, 2024-10-09)" xmlns:inkscape="http://www.inkscape.org/namespaces/inkscape" xmlns:sodipodi="http://sodipodi.sourceforge.net/DTD/sodipodi-0.dtd" xmlns="http://www.w3.org/2000/svg" xmlns:svg="http://www.w3.org/2000/svg">
  <defs id="defs1"></defs>
  <sodipodi:namedview id="namedview1" pagecolor="#ffffff" bordercolor="#000000" borderopacity="0.25" inkscape:showpageshadow="2" inkscape:pageopacity="0.0" inkscape:pagecheckerboard="0" inkscape:deskcolor="#d1d1d1" inkscape:zoom="1.1" inkscape:cx="21.818182" inkscape:cy="38.181818" inkscape:window-width="1920" inkscape:window-height="1011" inkscape:window-x="0" inkscape:window-y="0" inkscape:window-maximized="1" inkscape:current-layer="g1"></sodipodi:namedview>
  <g inkscape:groupmode="layer" inkscape:label="Image" id="g1" transform="translate(-349.77232,-220.11942)">
    <path style="fill:#ffffff" d="m 386.70473,457.38138 c -5.25756,-1.18075 -8.49318,-2.58108 -8.42538,-3.64639 0.041,-0.64485 3.97854,-4.66442 8.75,-8.93237 4.77146,-4.26796 11.25042,-10.11796 14.39769,-13 l 5.7223,-5.24008 -2.48274,-10.96043 c -1.3655,-6.02824 -2.81554,-11.26513 -3.2223,-11.63753 -0.40676,-0.3724 -5.30085,-2.15661 -10.87575,-3.96491 l -10.13619,-3.28782 -3.93455,3.42535 c -2.16401,1.88393 -8.60103,7.59204 -14.3045,12.68466 -7.31663,6.53303 -10.68184,8.94609 -11.42926,8.19548 -0.62304,-0.62571 -1.03028,-5.46873 -0.98881,-11.75932 0.0812,-12.32141 1.84314,-18.09449 8.61917,-28.24168 10.49184,-15.71164 31.28765,-23.26785 50.91059,-18.49849 l 7.13794,1.73488 4.63089,-4.36306 c 2.547,-2.39968 9.016,-8.57457 14.37557,-13.72196 11.05152,-10.61402 9.32463,-10.5002 18.95089,-1.24911 l 5.69556,5.47359 -2.44556,4.17303 c -4.4282,7.55615 -2.67853,18.05905 3.77381,22.65353 l 2.9728,2.11682 -9.99805,10.11348 -9.99805,10.11349 -0.42174,11.22413 c -0.40403,10.75303 -0.59444,11.57147 -4.53676,19.5 -6.70407,13.48278 -18.53336,23.09072 -32.27828,26.21694 -6.46034,1.46937 -16.00219,1.87875 -20.45929,0.87777 z m 175.5,-3.66547 c -5.69489,-2.04829 -5.65061,-2.01052 -36.92,-31.49491 -26.83951,-25.30739 -30.15904,-28.77972 -31.06664,-32.49675 -1.63523,-6.69692 -4.21089,-10.85475 -8.95996,-14.46382 -4.14252,-3.14812 -4.80435,-3.33451 -9.67793,-2.7256 -3.78909,0.47342 -6.04486,0.23292 -8.18221,-0.87235 -3.36792,-1.74162 -4.19326,-3.35074 -4.19326,-8.17538 0,-3.63126 3.83031,-8.43975 21.65031,-27.17932 7.38284,-7.76383 8.09717,-8.25449 12.0108,-8.25 5.60892,0.006 9.33889,4.17275 9.33889,10.43145 0,3.13816 0.7781,5.34737 2.92935,8.31708 4.01443,5.54176 6.78549,7.25623 11.72806,7.25623 2.31681,0 5.38487,0.44577 6.81789,0.99061 1.43303,0.54484 8.77483,6.74168 16.3151,13.77076 7.54028,7.02908 21.31688,19.73135 30.61467,28.22726 20.07876,18.3471 22.17946,21.59768 21.35992,33.05189 -0.81353,11.37013 -7.39251,19.92055 -17.95144,23.3307 -5.95968,1.92476 -10.99668,2.01463 -15.81355,0.28215 z m 13.03273,-16.1703 c 10.47181,-5.41518 5.95973,-21.48307 -6.03273,-21.48307 -11.5936,0 -16.27364,14.79194 -6.78321,21.4393 2.83289,1.98422 9.02264,2.00537 12.81594,0.0438 z M 452.9944,332.30738 c -7.35189,-7.00966 -21.0239,-20.00069 -30.38225,-28.86895 l -17.01517,-16.1241 -8.94613,-2.82376 c -4.92036,-1.55306 -9.46508,-3.29722 -10.09936,-3.87589 -0.63428,-0.57868 -5.07789,-7.702 -9.87469,-15.82962 l -8.72146,-14.77747 4.8747,-5.36466 c 2.68108,-2.95056 5.32469,-5.39375 5.87469,-5.42932 0.55,-0.0356 7.73822,3.8692 15.97383,8.67728 l 14.97382,8.74195 3.52618,9.21776 3.52617,9.21776 20.5,19.09709 c 24.45919,22.78533 40.10467,38.13331 39.75469,38.99875 -0.14008,0.34641 -2.58192,3.16293 -5.42632,6.25893 l -5.17163,5.62909 z m 60.82903,1.93843 c -0.7777,-5.86255 -5.18745,-11.55581 -10.24296,-13.22428 -5.57666,-1.84046 -13.61131,-0.77942 -17.69724,2.33706 l -3.46577,2.64347 -4.85079,-4.51727 -4.85079,-4.51726 14.48615,-13.79965 14.48616,-13.79965 0.13583,-10.90284 c 0.10391,-8.33997 0.63578,-12.29426 2.26265,-16.82212 6.0546,-16.85095 18.93874,-27.68306 36.43814,-30.63472 10.02414,-1.69079 25.69795,-0.21257 25.6663,2.42062 -0.008,0.62335 -6.28342,7.10754 -13.94649,14.40931 l -13.93287,13.27594 1.29518,3.72406 c 0.71235,2.04823 2.07915,6.9556 3.03735,10.90526 l 1.74217,7.1812 10.49879,4.0688 c 5.77434,2.23784 10.80111,4.0688 11.17062,4.0688 0.3695,0 6.87564,-5.85 14.45808,-13 7.58245,-7.15 14.18446,-13 14.67114,-13 2.48022,0 3.43683,12.95163 1.63842,22.18297 -3.58984,18.42693 -15.01058,31.72511 -31.70973,36.92247 -7.25953,2.25942 -20.07837,2.51577 -27.64563,0.55284 l -5.17244,-1.34171 -8.92176,7.80324 -8.92176,7.80324 z" id="path1"></path>
  </g>
</svg></svg></g></g></svg></g></svg>