<svg xmlns="http://www.w3.org/2000/svg" style="display: none;">
  
  <!-- Hash Icon -->
  <symbol id="icon-hash" viewBox="0 0 16 16">
    <path d="M8.39 12.648a1.32 1.32 0 0 0-.015.18c0 .305.21.508.5.508.266 0 .492-.172.555-.477l.554-2.703h1.204c.421 0 .617-.234.617-.547 0-.312-.188-.53-.617-.53h-.985l.516-2.524h1.265c.43 0 .618-.227.618-.547 0-.313-.188-.524-.618-.524h-1.046l.476-2.304a1.06 1.06 0 0 0 .016-.164.51.51 0 0 0-.516-.516.54.54 0 0 0-.539.43l-.523 2.554H7.617l.477-2.304c.008-.04.015-.118.015-.164a.512.512 0 0 0-.523-.516.539.539 0 0 0-.531.43L6.53 5.484H5.414c-.43 0-.617.22-.617.532 0 .312.187.539.617.539h.906l-.515 2.523H4.609c-.421 0-.609.219-.609.531 0 .313.188.547.61.547h.976l-.516 2.492c-.008.04-.015.125-.015.18 0 .305.21.508.5.508.265 0 .492-.172.554-.477l.555-2.703h2.242l-.515 2.492zm-1-6.109h2.266l-.515 2.563H6.859l.532-2.563z"/>
  </symbol>

  <!-- File Text Icon -->
  <symbol id="icon-file-text" viewBox="0 0 16 16">
    <path d="M5 4a.5.5 0 0 0 0 1h6a.5.5 0 0 0 0-1H5zm-.5 2.5A.5.5 0 0 1 5 6h6a.5.5 0 0 1 0 1H5a.5.5 0 0 1-.5-.5zM5 8a.5.5 0 0 0 0 1h6a.5.5 0 0 0 0-1H5zm0 2a.5.5 0 0 0 0 1h3a.5.5 0 0 0 0-1H5z"/>
    <path d="M2 2a2 2 0 0 1 2-2h8a2 2 0 0 1 2 2v12a2 2 0 0 1-2 2H4a2 2 0 0 1-2-2V2zm10-1H4a1 1 0 0 0-1 1v12a1 1 0 0 0 1 1h8a1 1 0 0 0 1-1V2a1 1 0 0 0-1-1z"/>
  </symbol>

  <!-- Shield Lock Icon -->
  <symbol id="icon-shield-lock" viewBox="0 0 16 16">
    <path d="M5.338 1.59a61.44 61.44 0 0 0-2.837.856.481.481 0 0 0-.328.39c-.554 4.157.726 7.19 2.253 9.188a10.725 10.725 0 0 0 2.287 2.233c.346.244.652.42.893.533.12.057.218.095.293.118a.55.55 0 0 0 .101.025.615.615 0 0 0 .1-.025c.076-.023.174-.061.294-.118.24-.113.547-.29.893-.533a10.726 10.726 0 0 0 2.287-2.233c1.527-1.997 2.807-5.031 2.253-9.188a.48.48 0 0 0-.328-.39c-.651-.213-1.75-.56-2.837-.855C9.552 1.29 8.531 1.067 8 1.067c-.53 0-1.552.223-2.662.524zM5.072.56C6.157.265 7.31 0 8 0s1.843.265 2.928.56c1.11.3 2.229.655 2.887.87a1.54 1.54 0 0 1 1.044 1.262c.596 4.477-.787 7.795-2.465 9.99a11.775 11.775 0 0 1-2.517 2.453 7.159 7.159 0 0 1-1.048.625c-.28.132-.581.24-.829.24s-.548-.108-.829-.24a7.158 7.158 0 0 1-1.048-.625 11.777 11.777 0 0 1-2.517-2.453C1.928 10.487.545 7.169 1.141 2.692A1.54 1.54 0 0 1 2.185 1.43 62.456 62.456 0 0 1 5.072.56z"/>
    <path d="M9.5 6.5a1.5 1.5 0 0 1-1 1.415l.385 1.99a.5.5 0 0 1-.491.595h-.788a.5.5 0 0 1-.49-.595l.384-1.99a1.5 1.5 0 1 1 2-1.415z"/>
  </symbol>

  <!-- Key Icon -->
  <symbol id="icon-key" viewBox="0 0 16 16">
    <path d="M0 8a4 4 0 0 1 7.465-2H14a.5.5 0 0 1 .354.146l1.5 1.5a.5.5 0 0 1 0 .708l-1.5 1.5a.5.5 0 0 1-.708 0L13 9.207l-.646.647a.5.5 0 0 1-.708 0L11 9.207l-.646.647a.5.5 0 0 1-.708 0L9 9.207l-.646.647A.5.5 0 0 1 8 10h-.535A4 4 0 0 1 0 8zm4-3a3 3 0 1 0 2.712 4.285A.5.5 0 0 1 7.163 9h.63l.853-.854a.5.5 0 0 1 .708 0l.646.647.646-.647a.5.5 0 0 1 .708 0l.646.647.646-.647a.5.5 0 0 1 .708 0l.646.647.793-.793-1-1h-6.63a.5.5 0 0 1-.451-.285A3 3 0 0 0 4 5z"/>
    <path d="M4 8a1 1 0 1 1-2 0 1 1 0 0 1 2 0z"/>
  </symbol>

  <!-- Shield Check Icon -->
  <symbol id="icon-shield-check" viewBox="0 0 16 16">
    <path d="M5.338 1.59a61.44 61.44 0 0 0-2.837.856.481.481 0 0 0-.328.39c-.554 4.157.726 7.19 2.253 9.188a10.725 10.725 0 0 0 2.287 2.233c.346.244.652.42.893.533.12.057.218.095.293.118a.55.55 0 0 0 .101.025.615.615 0 0 0 .1-.025c.076-.023.174-.061.294-.118.24-.113.547-.29.893-.533a10.726 10.726 0 0 0 2.287-2.233c1.527-1.997 2.807-5.031 2.253-9.188a.48.48 0 0 0-.328-.39c-.651-.213-1.75-.56-2.837-.855C9.552 1.29 8.531 1.067 8 1.067c-.53 0-1.552.223-2.662.524zM5.072.56C6.157.265 7.31 0 8 0s1.843.265 2.928.56c1.11.3 2.229.655 2.887.87a1.54 1.54 0 0 1 1.044 1.262c.596 4.477-.787 7.795-2.465 9.99a11.775 11.775 0 0 1-2.517 2.453 7.159 7.159 0 0 1-1.048.625c-.28.132-.581.24-.829.24s-.548-.108-.829-.24a7.158 7.158 0 0 1-1.048-.625 11.777 11.777 0 0 1-2.517-2.453C1.928 10.487.545 7.169 1.141 2.692A1.54 1.54 0 0 1 2.185 1.43 62.456 62.456 0 0 1 5.072.56z"/>
    <path d="M10.854 5.146a.5.5 0 0 1 0 .708l-3 3a.5.5 0 0 1-.708 0l-1.5-1.5a.5.5 0 1 1 .708-.708L7.5 7.793l2.646-2.647a.5.5 0 0 1 .708 0z"/>
  </symbol>

  <!-- Clipboard Icon -->
  <symbol id="icon-clipboard" viewBox="0 0 16 16">
    <path d="M4 1.5H3a2 2 0 0 0-2 2V14a2 2 0 0 0 2 2h10a2 2 0 0 0 2-2V3.5a2 2 0 0 0-2-2h-1v1h1a1 1 0 0 1 1 1V14a1 1 0 0 1-1 1H3a1 1 0 0 1-1-1V3.5a1 1 0 0 1 1-1h1v-1z"/>
    <path d="M9.5 1a.5.5 0 0 1 .5.5v1a.5.5 0 0 1-.5.5h-3a.5.5 0 0 1-.5-.5v-1a.5.5 0 0 1 .5-.5h3zm-3-1A1.5 1.5 0 0 0 5 1.5v1A1.5 1.5 0 0 0 6.5 4h3A1.5 1.5 0 0 0 11 2.5v-1A1.5 1.5 0 0 0 9.5 0h-3z"/>
  </symbol>

  <!-- Clipboard Check Icon -->
  <symbol id="icon-clipboard-check" viewBox="0 0 16 16">
    <path fill-rule="evenodd" d="M10.854 7.146a.5.5 0 0 1 0 .708l-3 3a.5.5 0 0 1-.708 0l-1.5-1.5a.5.5 0 1 1 .708-.708L7.5 9.793l2.646-2.647a.5.5 0 0 1 .708 0z"/>
    <path d="M4 1.5H3a2 2 0 0 0-2 2V14a2 2 0 0 0 2 2h10a2 2 0 0 0 2-2V3.5a2 2 0 0 0-2-2h-1v1h1a1 1 0 0 1 1 1V14a1 1 0 0 1-1 1H3a1 1 0 0 1-1-1V3.5a1 1 0 0 1 1-1h1v-1z"/>
    <path d="M9.5 1a.5.5 0 0 1 .5.5v1a.5.5 0 0 1-.5.5h-3a.5.5 0 0 1-.5-.5v-1a.5.5 0 0 1 .5-.5h3zm-3-1A1.5 1.5 0 0 0 5 1.5v1A1.5 1.5 0 0 0 6.5 4h3A1.5 1.5 0 0 0 11 2.5v-1A1.5 1.5 0 0 0 9.5 0h-3z"/>
  </symbol>

  <!-- Pencil Icon -->
  <symbol id="icon-pencil" viewBox="0 0 16 16">
    <path d="M12.146.146a.5.5 0 0 1 .708 0l3 3a.5.5 0 0 1 0 .708l-10 10a.5.5 0 0 1-.168.11l-5 2a.5.5 0 0 1-.65-.65l2-5a.5.5 0 0 1 .11-.168l10-10zM11.207 2.5 13.5 4.793 14.793 3.5 12.5 1.207 11.207 2.5zm1.586 3L10.5 3.207 4 9.707V10h.5a.5.5 0 0 1 .5.5v.5h.5a.5.5 0 0 1 .5.5v.5h.293l6.5-6.5zm-9.761 5.175-.106.106-1.528 3.821 3.821-1.528.106-.106A.5.5 0 0 1 5 12.5V12h-.5a.5.5 0 0 1-.5-.5V11h-.5a.5.5 0 0 1-.468-.325z"/>
  </symbol>

  <!-- Sliders Icon -->
  <symbol id="icon-sliders" viewBox="0 0 16 16">
    <path fill-rule="evenodd" d="M11.5 2a1.5 1.5 0 1 0 0 3 1.5 1.5 0 0 0 0-3zM9.05 3a2.5 2.5 0 0 1 4.9 0H16v1h-2.05a2.5 2.5 0 0 1-4.9 0H0V3h9.05zM4.5 7a1.5 1.5 0 1 0 0 3 1.5 1.5 0 0 0 0-3zM2.05 8a2.5 2.5 0 0 1 4.9 0H16v1H6.95a2.5 2.5 0 0 1-4.9 0H0V8h2.05zm9.45 4a1.5 1.5 0 1 0 0 3 1.5 1.5 0 0 0 0-3zm-2.45 1a2.5 2.5 0 0 1 4.9 0H16v1h-2.05a2.5 2.5 0 0 1-4.9 0H0v-1h9.05z"/>
  </symbol>

  <!-- Arrow Clockwise Icon -->
  <symbol id="icon-arrow-clockwise" viewBox="0 0 16 16">
    <path fill-rule="evenodd" d="M8 3a5 5 0 1 0 4.546 2.914.5.5 0 0 1 .908-.417A6 6 0 1 1 8 2v1z"/>
    <path d="M8 4.466V.534a.25.25 0 0 1 .41-.192l2.36 1.966c.12.1.12.284 0 .384L8.41 4.658A.25.25 0 0 1 8 4.466z"/>
  </symbol>

  <!-- Check Icon -->
  <symbol id="icon-check" viewBox="0 0 16 16">
    <path d="M10.97 4.97a.75.75 0 0 1 1.07 1.05l-3.99 4.99a.75.75 0 0 1-1.08.02L4.324 8.384a.75.75 0 1 1 1.06-1.06l2.094 2.093 3.473-4.425a.267.267 0 0 1 .02-.022z"/>
  </symbol>

  <!-- Exclamation Triangle Icon -->
  <symbol id="icon-exclamation-triangle" viewBox="0 0 16 16">
    <path d="M7.938 2.016A.13.13 0 0 1 8.002 2a.13.13 0 0 1 .063.016.146.146 0 0 1 .054.057l6.857 11.667c.036.06.035.124.002.183a.163.163 0 0 1-.054.06.116.116 0 0 1-.066.017H1.146a.115.115 0 0 1-.066-.017.163.163 0 0 1-.054-.06.176.176 0 0 1 .002-.183L7.884 2.073a.147.147 0 0 1 .054-.057zm1.044-.45a1.13 1.13 0 0 0-1.96 0L.165 13.233c-.457.778.091 1.767.98 1.767h13.713c.889 0 1.438-.99.98-1.767L8.982 1.566z"/>
    <path d="M7.002 12a1 1 0 1 1 2 0 1 1 0 0 1-2 0zM7.1 5.995a.905.905 0 1 1 1.8 0l-.35 3.507a.552.552 0 0 1-1.1 0L7.1 5.995z"/>
  </symbol>

  <!-- Info Circle Icon -->
  <symbol id="icon-info-circle" viewBox="0 0 16 16">
    <path d="M8 15A7 7 0 1 1 8 1a7 7 0 0 1 0 14zm0 1A8 8 0 1 0 8 0a8 8 0 0 0 0 16z"/>
    <path d="m8.93 6.588-2.29.287-.082.38.45.083c.294.07.352.176.288.469l-.738 3.468c-.194.897.105 1.319.808 1.319.545 0 1.178-.252 1.465-.598l.088-.416c-.2.176-.492.246-.686.246-.275 0-.375-.193-.304-.533L8.93 6.588zM9 4.5a1 1 0 1 1-2 0 1 1 0 0 1 2 0z"/>
  </symbol>

  <!-- Arrows Angle Expand Icon -->
  <symbol id="icon-arrows-angle-expand" viewBox="0 0 16 16">
    <path fill-rule="evenodd" d="M5.828 10.172a.5.5 0 0 0-.707 0l-4.096 4.096V11.5a.5.5 0 0 0-1 0v3.975a.5.5 0 0 0 .5.5H4.5a.5.5 0 0 0 0-1H1.732l4.096-4.096a.5.5 0 0 0 0-.707zm4.344-4.344a.5.5 0 0 0 .707 0l4.096-4.096V4.5a.5.5 0 1 0 1 0V.525a.5.5 0 0 0-.5-.5H11.5a.5.5 0 0 0 0 1h2.768l-4.096 4.096a.5.5 0 0 0 0 .707z"/>
  </symbol>

  <!-- File Earmark Icon -->
  <symbol id="icon-file-earmark" viewBox="0 0 16 16">
    <path d="M14 4.5V14a2 2 0 0 1-2 2H4a2 2 0 0 1-2-2V2a2 2 0 0 1 2-2h5.5L14 4.5zm-3 0A1.5 1.5 0 0 1 9.5 3V1H4a1 1 0 0 0-1 1v12a1 1 0 0 0 1 1h8a1 1 0 0 0 1-1V4.5h-2z"/>
  </symbol>

  <!-- Download Icon -->
  <symbol id="icon-download" viewBox="0 0 16 16">
    <path d="M.5 9.9a.5.5 0 0 1 .5.5v2.5a1 1 0 0 0 1 1h12a1 1 0 0 0 1-1v-2.5a.5.5 0 0 1 1 0v2.5a2 2 0 0 1-2 2H2a2 2 0 0 1-2-2v-2.5a.5.5 0 0 1 .5-.5z"/>
    <path d="M7.646 11.854a.5.5 0 0 0 .708 0l3-3a.5.5 0 0 0-.708-.708L8.5 10.293V1.5a.5.5 0 0 0-1 0v8.793L5.354 8.146a.5.5 0 1 0-.708.708l3 3z"/>
  </symbol>

  <!-- Check Circle Icon -->
  <symbol id="icon-check-circle" viewBox="0 0 16 16">
    <path d="M8 15A7 7 0 1 1 8 1a7 7 0 0 1 0 14zm0 1A8 8 0 1 0 8 0a8 8 0 0 0 0 16z"/>
    <path d="M10.97 4.97a.235.235 0 0 0-.02.022L7.477 9.417 5.384 7.323a.75.75 0 0 0-1.06 1.06L6.97 11.03a.75.75 0 0 0 1.079-.02l3.992-4.99a.75.75 0 0 0-1.071-1.05z"/>
  </symbol>

  <!-- X Circle Icon -->
  <symbol id="icon-x-circle" viewBox="0 0 16 16">
    <path d="M8 15A7 7 0 1 1 8 1a7 7 0 0 1 0 14zm0 1A8 8 0 1 0 8 0a8 8 0 0 0 0 16z"/>
    <path d="M4.646 4.646a.5.5 0 0 1 .708 0L8 7.293l2.646-2.647a.5.5 0 0 1 .708.708L8.707 8l2.647 2.646a.5.5 0 0 1-.708.708L8 8.707l-2.646 2.647a.5.5 0 0 1-.708-.708L7.293 8 4.646 5.354a.5.5 0 0 1 0-.708z"/>
  </symbol>

  <!-- Arrows Collapse Icon -->
  <symbol id="icon-arrows-collapse" viewBox="0 0 16 16">
    <path fill-rule="evenodd" d="M1 8a.5.5 0 0 1 .5-.5h13a.5.5 0 0 1 0 1h-13A.5.5 0 0 1 1 8Zm7-8a.5.5 0 0 1 .5.5v3.793l1.146-1.147a.5.5 0 0 1 .708.708l-2 2a.5.5 0 0 1-.708 0l-2-2a.5.5 0 1 1 .708-.708L7.5 4.293V.5A.5.5 0 0 1 8 0Zm-.5 11.707-1.146 1.147a.5.5 0 0 1-.708-.708l2-2a.5.5 0 0 1 .708 0l2 2a.5.5 0 0 1-.708.708L8.5 11.707V15.5a.5.5 0 0 1-1 0v-3.793Z"/>
  </symbol>

  <!-- List/Hamburger Menu Icon -->
  <symbol id="icon-list" viewBox="0 0 16 16">
    <path fill-rule="evenodd" d="M2.5 12a.5.5 0 0 1 .5-.5h10a.5.5 0 0 1 0 1H3a.5.5 0 0 1-.5-.5zm0-4a.5.5 0 0 1 .5-.5h10a.5.5 0 0 1 0 1H3a.5.5 0 0 1-.5-.5zm0-4a.5.5 0 0 1 .5-.5h10a.5.5 0 0 1 0 1H3a.5.5 0 0 1-.5-.5z"/>
  </symbol>

  <!-- House Door Icon -->
  <symbol id="icon-house-door" viewBox="0 0 16 16">
    <path d="M8.354 1.146a.5.5 0 0 0-.708 0l-6 6A.5.5 0 0 0 1.5 7.5v7a.5.5 0 0 0 .5.5h4.5a.5.5 0 0 0 .5-.5v-4h2v4a.5.5 0 0 0 .5.5H14a.5.5 0 0 0 .5-.5v-7a.5.5 0 0 0-.146-.354L13 5.793V2.5a.5.5 0 0 0-.5-.5h-1a.5.5 0 0 0-.5.5v1.293L8.354 1.146zM2.5 14V7.707l5.5-5.5 5.5 5.5V14H10v-4a.5.5 0 0 0-.5-.5h-3a.5.5 0 0 0-.5.5v4H2.5z"/>
  </symbol>

  <!-- Globe Icon -->
  <symbol id="icon-globe" viewBox="0 0 16 16">
    <path d="M0 8a8 8 0 1 1 16 0A8 8 0 0 1 0 8zm7.5-6.923c-.67.204-1.335.82-1.887 1.855A7.97 7.97 0 0 0 5.145 4H7.5V1.077zM4.09 4a9.267 9.267 0 0 1 .64-1.539 6.7 6.7 0 0 1 .597-.933A7.025 7.025 0 0 0 2.255 4H4.09zm-.582 3.5c.03-.877.138-1.718.312-2.5H1.674a6.958 6.958 0 0 0-.656 2.5h2.49zM4.847 5a12.5 12.5 0 0 0-.338 2.5H7.5V5H4.847zM8.5 5v2.5h2.99a12.495 12.495 0 0 0-.337-2.5H8.5zM4.51 8.5a12.5 12.5 0 0 0 .337 2.5H7.5V8.5H4.51zm3.99 0V11h2.653c.187-.765.306-1.608.338-2.5H8.5zM5.145 12c.138.386.295.744.468 1.068.552 1.035 1.218 1.65 1.887 1.855V12H5.145zm.182 2.472a6.696 6.696 0 0 1-.597-.933A9.268 9.268 0 0 1 4.09 12H2.255a7.024 7.024 0 0 0 3.072 2.472zM3.82 11a13.652 13.652 0 0 1-.312-2.5h-2.49c.062.89.291 1.733.656 2.5H3.82zm6.853 3.472A7.024 7.024 0 0 0 13.745 12H11.91a9.27 9.27 0 0 1-.64 1.539 6.688 6.688 0 0 1-.597.933zM8.5 12v2.923c.67-.204 1.335-.82 1.887-1.855.173-.324.33-.682.468-1.068H8.5zm3.68-1h2.146c.365-.767.594-1.61.656-2.5h-2.49a13.65 13.65 0 0 1-.312 2.5zm2.802-3.5a6.959 6.959 0 0 0-.656-2.5H12.18c.174.782.282 1.623.312 2.5h2.49zM11.27 2.461c.247.464.462.98.64 1.539h1.835a7.024 7.024 0 0 0-3.072-2.472c.218.284.418.598.597.933zM10.855 4a7.966 7.966 0 0 0-.468-1.068C9.835 1.897 9.17 1.282 8.5 1.077V4h2.355z"/>
  </symbol>

  <!-- Arrow Left Right Icon -->
  <symbol id="icon-arrow-left-right" viewBox="0 0 16 16">
    <path fill-rule="evenodd" d="M1 11.5a.5.5 0 0 0 .5.5h11.793l-3.147 3.146a.5.5 0 0 0 .708.708l4-4a.5.5 0 0 0 0-.708l-4-4a.5.5 0 0 0-.708.708L13.293 11H1.5a.5.5 0 0 0-.5.5zm14-7a.5.5 0 0 1-.5.5H2.707l3.147 3.146a.5.5 0 1 1-.708.708l-4-4a.5.5 0 0 1 0-.708l4-4a.5.5 0 1 1 .708.708L2.707 4H14.5a.5.5 0 0 1 .5.5z"/>
  </symbol>

  <!-- Stars Icon -->
  <symbol id="icon-stars" viewBox="0 0 16 16">
    <path d="M7.657 6.247c.11-.33.576-.33.686 0l.645 1.937a2.89 2.89 0 0 0 1.829 1.828l1.936.645c.33.11.33.576 0 .686l-1.937.645a2.89 2.89 0 0 0-1.828 1.829l-.645 1.936a.361.361 0 0 1-.686 0l-.645-1.937a2.89 2.89 0 0 0-1.828-1.828l-1.937-.645a.361.361 0 0 1 0-.686l1.937-.645a2.89 2.89 0 0 0 1.828-1.828l.645-1.937zM3.794 1.148a.217.217 0 0 1 .412 0l.387 1.162c.173.518.579.924 1.097 1.097l1.162.387a.217.217 0 0 1 0 .412l-1.162.387A1.734 1.734 0 0 0 4.593 5.69l-.387 1.162a.217.217 0 0 1-.412 0L3.407 5.69A1.734 1.734 0 0 0 2.31 4.593l-1.162-.387a.217.217 0 0 1 0-.412l1.162-.387A1.734 1.734 0 0 0 3.407 2.31l.387-1.162zM10.863.099a.145.145 0 0 1 .274 0l.258.774c.115.346.386.617.732.732l.774.258a.145.145 0 0 1 0 .274l-.774.258a1.156 1.156 0 0 0-.732.732l-.258.774a.145.145 0 0 1-.274 0l-.258-.774a1.156 1.156 0 0 0-.732-.732L9.1 2.137a.145.145 0 0 1 0-.274l.774-.258c.346-.115.617-.386.732-.732L10.863.1z"/>
  </symbol>

  <!-- Translate Icon -->
  <symbol id="icon-translate" viewBox="0 0 16 16">
    <path d="M4.545 6.714 4.11 8H3l1.862-5h1.284L8 8H6.833l-.435-1.286H4.545zm1.634-.736L5.5 3.956h-.049l-.679 2.022H6.18z"/>
    <path d="M0 2a2 2 0 0 1 2-2h7a2 2 0 0 1 2 2v3h3a2 2 0 0 1 2 2v7a2 2 0 0 1-2 2H7a2 2 0 0 1-2-2v-3H2a2 2 0 0 1-2-2V2zm2-1a1 1 0 0 0-1 1v7a1 1 0 0 0 1 1h7a1 1 0 0 0 1-1V2a1 1 0 0 0-1-1H2zm7.138 9.995c.193.301.402.583.63.846-.748.575-1.673 1.001-2.768 1.292.178.217.451.635.555.867 1.125-.359 2.08-.844 2.886-1.494.777.665 1.739 1.165 2.93 1.472.133-.254.414-.673.629-.89-1.125-.253-2.057-.694-2.82-1.284.681-.747 1.222-1.651 1.621-2.757H14V8h-3v1.047h.765c-.318.844-.74 1.546-1.272 2.13a6.066 6.066 0 0 1-.415-.492 1.988 1.988 0 0 1-.94.31z"/>
  </symbol>

  <!-- Chevron Down Icon -->
  <symbol id="icon-chevron-down" viewBox="0 0 16 16">
    <path fill-rule="evenodd" d="M1.646 4.646a.5.5 0 0 1 .708 0L8 10.293l5.646-5.647a.5.5 0 0 1 .708.708l-6 6a.5.5 0 0 1-.708 0l-6-6a.5.5 0 0 1 0-.708z"/>
  </symbol>

</svg>
