<?xml version="1.0" encoding="UTF-8" standalone="no"?>
<!-- Created with Inkscape (http://www.inkscape.org/) -->

<svg
   version="1.1"
   id="svg1"
   width="640"
   height="640"
   viewBox="0 0 640 640"
   sodipodi:docname="Ramon-Kaes-Logo"
   inkscape:version="1.4 (e7c3feb100, 2024-10-09)"
   xmlns:inkscape="http://www.inkscape.org/namespaces/inkscape"
   xmlns:sodipodi="http://sodipodi.sourceforge.net/DTD/sodipodi-0.dtd"
   xmlns="http://www.w3.org/2000/svg"
   xmlns:svg="http://www.w3.org/2000/svg">
  <defs
     id="defs1" />
  <sodipodi:namedview
     id="namedview1"
     pagecolor="#ffffff"
     bordercolor="#000000"
     borderopacity="0.25"
     inkscape:showpageshadow="2"
     inkscape:pageopacity="0.0"
     inkscape:pagecheckerboard="0"
     inkscape:deskcolor="#d1d1d1"
     inkscape:zoom="0.734375"
     inkscape:cx="236.93617"
     inkscape:cy="295.48936"
     inkscape:window-width="1920"
     inkscape:window-height="1011"
     inkscape:window-x="0"
     inkscape:window-y="0"
     inkscape:window-maximized="1"
     inkscape:current-layer="g1" />
  <g
     inkscape:groupmode="layer"
     inkscape:label="Image"
     id="g1"
     transform="translate(-275,-216.94054)">
    <path
       style="fill:#000000"
       d="M 596,825.81164 571,811.24133 553.75386,801.238 536.50773,791.23466 536.25386,666.17705 536,541.11943 507.49994,524.04485 478.99988,506.97027 459.7538,495.22919 440.50772,483.48811 440.25386,608.84233 440,734.19655 l -9.5,-5.71057 -9.5,-5.71057 -11,-6.46663 -11,-6.46663 -20.22599,-11.93594 -20.22599,-11.93594 -0.024,-161.25 -0.024,-161.25 h 0.79827 0.79828 l 23.95172,-13.3499 23.95173,-13.3499 22,-12.30659 22,-12.30659 4.5,-2.50851 4.5,-2.50851 20.5,-11.48704 20.5,-11.48704 26.5,-14.72302 26.5,-14.72301 16.5,-9.21515 16.5,-9.21514 2.26019,-1.43953 2.26019,-1.43953 2.23981,1.16941 2.23981,1.16942 21.5,12.00355 21.5,12.00356 12,6.72454 12,6.72453 15,8.47495 15,8.47496 6.5,3.58083 6.5,3.58084 28.5,16.06399 28.5,16.064 33.7135,18.76244 33.7135,18.76244 0.0365,41.09651 0.0365,41.09652 -28.25,16.49268 -28.25,16.49268 -16,9.33595 -16,9.33595 -19,11.13157 -19,11.13157 -17.22671,9.94328 -17.22671,9.94329 0.22671,0.70546 0.22671,0.70546 39.5,26.38904 39.5,26.38903 10.5,7.22881 10.5,7.22882 30.21915,20.17669 30.21915,20.17669 0.0308,51.37197 0.0309,51.37197 -1.96692,-1.37197 -1.96691,-1.37197 L 803.78308,735.53708 780,719.1039 740.5,691.95627 701,664.80864 684,652.97441 667,641.14018 647.5,627.65222 628,614.16425 l -2.38486,-1.84699 -2.38486,-1.84699 -0.61514,-5e-5 -0.61514,-4e-5 0.24915,115.00004 0.24915,115.00005 -0.74915,-0.0442 L 621,840.38195 Z M 638.10282,449.34614 685,423.22201 l 18.24723,-10.12587 18.24723,-10.12587 -0.016,-0.5 -0.016,-0.5 -36.2312,-20.14827 -36.2312,-20.14827 -23,-12.729 -23,-12.72901 -4.36709,-2.41829 -4.3671,-2.41829 -20.1329,11.44117 -20.13291,11.44117 -29.5,16.71193 -29.5,16.71193 -14.25491,8.10185 -14.2549,8.10184 1.2549,1.14082 1.25491,1.14083 19.5,11.29145 19.5,11.29145 18,10.49796 18,10.49796 22.5,12.85066 22.5,12.85067 1.10282,0.01 1.10283,0.01 z"
       id="path1" />
  </g>
</svg>
